<svg xmlns="http://www.w3.org/2000/svg" width="278" height="278" viewBox="0 0 278 278" version="1.1"><path d="M 63.946 23.823 C 43.944 36.526, 27.304 55.482, 15.362 79.169 C 9.995 89.815, 11.520 88.493, 17.321 77.472 C 28.908 55.456, 44.311 38.109, 63.711 25.229 C 68.394 22.119, 69.713 21, 68.696 21 C 68.528 21, 66.391 22.271, 63.946 23.823 M 206.411 39.226 C 189.878 60.003, 188.975 61.213, 193.145 57 C 195.051 55.075, 199.717 49.450, 203.515 44.500 C 216.556 27.501, 221 22.789, 221 25.961 C 221 26.490, 219.073 29.302, 216.717 32.211 C 210.256 40.191, 206.704 45, 207.272 45 C 208.696 45, 223.098 25.697, 222.614 24.437 C 221.403 21.281, 218.801 23.656, 206.411 39.226 M 159.959 97.500 C 143.922 117.575, 130.436 134, 129.992 134 C 129.547 134, 126.884 131.075, 124.074 127.500 C 119.559 121.754, 115.568 118.018, 119.128 122.870 C 122.280 127.166, 129.265 135.515, 129.859 135.696 C 130.212 135.804, 132.178 133.779, 134.229 131.196 C 136.280 128.613, 141.005 122.723, 144.729 118.107 C 152.590 108.362, 156.872 102.971, 160.860 97.798 C 162.429 95.761, 165.302 92.161, 167.244 89.798 C 170.976 85.255, 176.092 78.848, 184.847 67.750 C 187.776 64.037, 189.935 61, 189.645 61 C 189.355 61, 175.996 77.425, 159.959 97.500 M 197.809 71.774 C 192.482 78.082, 188.887 82.992, 189.630 82.943 C 190.108 82.912, 192.239 80.605, 194.364 77.818 C 200.031 70.383, 199.934 69.299, 199.982 140.617 C 200.032 216.287, 201.633 208.266, 186.566 207.816 C 180.753 207.642, 175.997 207.838, 175.998 208.250 C 176.003 209.906, 199.749 209.097, 200.393 207.418 C 201.352 204.918, 201.099 71.179, 200.134 70.583 C 199.657 70.288, 198.611 70.824, 197.809 71.774 M 77.667 71.667 C 76.672 72.661, 76.890 204.279, 77.889 205.855 C 79.503 208.402, 102.035 179.002, 101.919 174.500 C 101.840 171.400, 101.571 171.711, 100.622 176 C 99.532 180.924, 80.120 204.751, 78.797 202.789 C 77.796 201.306, 78.112 75.049, 79.118 74.427 C 79.843 73.979, 84.497 79.062, 90 86.313 C 91.925 88.849, 93.860 90.941, 94.299 90.962 C 94.739 90.983, 91.454 86.500, 87 81 C 78.380 70.355, 78.679 70.655, 77.667 71.667 M 174.349 101.250 C 150.897 130.756, 136.778 148.429, 135.203 150.250 C 134.371 151.213, 133.941 152, 134.248 152 C 134.555 152, 138.337 147.613, 142.653 142.250 C 146.969 136.887, 150.779 132.275, 151.120 132 C 151.460 131.725, 154.138 128.350, 157.071 124.500 C 160.003 120.650, 163.024 116.869, 163.783 116.097 C 164.542 115.326, 167.006 112.176, 169.260 109.097 C 171.513 106.019, 175.673 100.800, 178.505 97.500 C 184.834 90.124, 189.435 84, 188.649 84 C 188.325 84, 181.890 91.763, 174.349 101.250 M 164.294 98.250 C 161.108 102.237, 156.702 107.828, 154.501 110.673 C 152.301 113.519, 145.135 122.519, 138.578 130.673 C 124.153 148.614, 124.623 148, 125.319 148 C 125.792 148, 155.521 111.314, 164.202 100.017 C 165.689 98.082, 167.864 95.263, 169.036 93.750 C 170.208 92.237, 170.923 91, 170.626 91 C 170.329 91, 167.479 94.263, 164.294 98.250 M 127.724 159.750 C 112.254 179.226, 84.793 213.772, 71.164 230.902 C 55.772 250.247, 54.016 253.116, 57.162 253.768 C 58.277 253.999, 61.535 250.717, 67.053 243.806 C 78.225 229.813, 77.737 230.473, 76.216 231.388 C 75.509 231.813, 71.409 236.612, 67.104 242.052 C 62.799 247.492, 58.917 251.619, 58.478 251.222 C 58.039 250.825, 58.003 251.063, 58.399 251.750 C 58.794 252.438, 58.641 253, 58.059 253 C 56.011 253, 57.037 250.145, 60.630 245.845 C 62.627 243.455, 70.597 233.400, 78.341 223.500 C 86.085 213.600, 92.676 205.275, 92.987 205 C 93.297 204.725, 95.109 202.475, 97.011 200 C 98.914 197.525, 101.077 194.869, 101.817 194.097 C 102.557 193.326, 105.007 190.176, 107.261 187.097 C 109.516 184.019, 111.628 181.275, 111.956 181 C 112.284 180.725, 115.397 176.900, 118.873 172.500 C 122.350 168.100, 125.938 163.591, 126.847 162.480 C 130.515 157.998, 134.072 153, 133.593 153 C 133.314 153, 130.673 156.037, 127.724 159.750 M 145.188 177.057 C 138.875 185.040, 138.875 185.040, 135.489 180.770 C 128.370 171.792, 126.775 170, 125.902 170 C 124.857 170, 121.621 173.085, 120.363 175.280 C 119.888 176.108, 118.038 178.521, 116.252 180.643 C 114.466 182.764, 109.820 188.550, 105.927 193.500 C 102.035 198.450, 97.519 204.023, 95.892 205.884 C 94.265 207.745, 93.184 209.518, 93.490 209.823 C 93.796 210.129, 94.732 209.399, 95.572 208.201 C 97.046 206.096, 119.251 178.365, 123.682 173.095 C 125.663 170.738, 125.985 170.650, 127.182 172.137 C 127.907 173.037, 130.704 176.524, 133.398 179.887 C 139.334 187.297, 138.677 187.275, 144.196 180.250 C 146.681 177.088, 149.711 173.262, 150.929 171.750 C 152.148 170.238, 152.775 169.017, 152.323 169.037 C 151.870 169.058, 148.659 172.667, 145.188 177.057 M 30.562 183 C 33.185 193.236, 45.952 212.077, 58.322 223.968 C 62.809 228.280, 57.423 242.500, 51.302 242.500 C 48.253 242.500, 32.840 225.650, 25.138 213.895 C 22.037 209.163, 18.931 204.438, 18.236 203.395 C 17.540 202.353, 17.700 203.075, 18.591 205 C 23.458 215.520, 47.081 244, 50.940 244 C 52.240 244, 55.728 240.119, 60.696 233.144 C 63.893 228.657, 63.893 228.657, 56.011 220.331 C 47.118 210.935, 38.712 198.842, 33.467 187.898 C 31.517 183.829, 30.210 181.625, 30.562 183 M 250.573 217.678 C 232.760 243.892, 200.672 264.907, 167 272.413 C 160.675 273.823, 157.750 274.725, 160.500 274.417 C 193.552 270.718, 234.990 244.699, 252.339 216.750 C 254.866 212.680, 253.471 213.412, 250.573 217.678 M 71.050 246.175 C 63.799 255.915, 63.099 254.564, 79.500 262.473 C 90.878 267.959, 100.731 271.602, 101.666 270.668 C 101.961 270.373, 100.374 269.639, 98.139 269.038 C 88.850 266.536, 67 255.779, 67 253.708 C 67 246.007, 78.026 239.630, 85.164 243.202 C 93.137 247.193, 104.022 251.311, 104.729 250.604 C 104.949 250.384, 102.738 249.420, 99.815 248.461 C 96.892 247.503, 90.900 244.874, 86.500 242.619 C 82.100 240.363, 78.209 238.380, 77.854 238.210 C 77.499 238.041, 74.437 241.625, 71.050 246.175" stroke="none" fill="#7d408e" fill-rule="evenodd"/><path d="M 115.356 4.572 C 79.653 10.569, 44.591 33.770, 24.750 64.528 C 19.893 72.056, 12 87.254, 12 89.077 C 12 89.693, 11.365 91.616, 10.588 93.349 C 5.643 104.384, 3.002 120.323, 3.023 139 C 3.037 151.757, 3.585 156.947, 6.454 171.500 C 10.761 193.347, 27.631 221.886, 46.346 238.986 C 54.300 246.254, 66.106 231.450, 58.322 223.968 C 26.711 193.581, 14.674 148.981, 26.632 106.540 C 28.884 98.548, 35.484 82.308, 37.012 81 C 37.333 80.725, 38.774 78.475, 40.213 76 C 60.931 40.381, 107.427 18.166, 151.304 22.924 C 166.433 24.565, 190.913 32.056, 196.105 36.633 C 198.078 38.372, 200.355 37.608, 201.874 34.695 C 202.504 33.488, 204.602 30.536, 206.537 28.136 C 210.840 22.799, 210.548 22.300, 200.056 17.037 C 175.514 4.725, 142.961 -0.065, 115.356 4.572 M 214.831 30.250 C 212.405 33.138, 207.331 39.550, 203.557 44.500 C 199.782 49.450, 196.175 53.950, 195.542 54.500 C 194.908 55.050, 191.047 59.775, 186.961 65 C 177.969 76.500, 171.950 84.070, 167.251 89.790 C 165.312 92.150, 162.550 95.608, 161.113 97.475 C 155.786 104.395, 152.367 108.658, 147.226 114.792 C 144.326 118.252, 140.673 122.849, 139.109 125.008 C 131.488 135.529, 129.954 136.657, 127.624 133.458 C 125.654 130.754, 119.904 123.634, 116.650 119.871 C 115.875 118.975, 113.424 115.781, 111.202 112.773 C 108.980 109.766, 106.551 106.674, 105.803 105.903 C 105.056 105.131, 102.320 101.800, 99.723 98.500 C 97.126 95.200, 93.538 90.743, 91.751 88.596 C 89.963 86.449, 87.869 83.749, 87.099 82.596 C 84.841 79.218, 79.736 74.045, 79.068 74.458 C 78.095 75.059, 77.828 201.353, 78.797 202.789 C 79.643 204.044, 85.505 197.663, 95.327 184.794 C 101.497 176.711, 101.475 176.803, 101.760 158.071 C 101.906 148.485, 102.182 140.485, 102.373 140.294 C 102.563 140.103, 105.823 143.651, 109.616 148.178 C 118.056 158.252, 116.855 158.418, 126.500 145.850 C 130.900 140.117, 139.450 129.309, 145.500 121.832 C 151.550 114.355, 161 102.493, 166.500 95.471 C 172 88.449, 178.075 80.800, 180 78.474 C 181.925 76.147, 185.075 72.146, 187 69.581 C 188.925 67.016, 190.952 64.374, 191.504 63.709 C 192.057 63.044, 194.530 60.025, 197 57 C 199.470 53.975, 201.943 50.985, 202.496 50.355 C 203.048 49.725, 204.491 47.925, 205.702 46.355 C 206.913 44.785, 210.851 39.746, 214.452 35.158 C 218.053 30.570, 221 26.408, 221 25.908 C 221 23.876, 219.012 25.275, 214.831 30.250 M 222.868 36.793 C 213 47.815, 213.005 47.207, 222.710 57.358 C 257.466 93.714, 265.651 145.177, 243.885 190.500 C 237.914 202.933, 226.774 218.033, 218 225.585 C 210.624 231.935, 195.226 243, 193.767 243 C 193.478 243, 190.600 244.225, 187.371 245.722 C 184.142 247.219, 181.162 248.513, 180.750 248.597 C 180.338 248.681, 179.775 248.863, 179.500 249 C 179.225 249.137, 178.662 249.345, 178.250 249.461 C 177.838 249.578, 176.825 249.957, 176 250.305 C 153.305 259.863, 112.781 256.831, 85.962 243.568 C 77.423 239.345, 77.423 239.345, 72.212 246.093 C 65.774 254.430, 65.723 253.841, 73.250 258.163 C 162.235 309.256, 275.007 242.641, 274.999 138.989 C 274.998 124.472, 274.496 120.148, 270.998 104.500 C 266.254 83.277, 252.314 59.343, 234.181 41.292 C 226.724 33.868, 225.812 33.505, 222.868 36.793 M 194.388 77.635 C 192.249 80.279, 189.973 83.130, 189.328 83.971 C 188.683 84.812, 185.403 88.875, 182.038 93 C 178.674 97.125, 173.487 103.707, 170.512 107.627 C 167.537 111.547, 164.496 115.372, 163.753 116.127 C 163.010 116.882, 160.003 120.650, 157.071 124.500 C 154.138 128.350, 151.453 131.725, 151.103 132 C 150.481 132.489, 133.451 153.794, 127.500 161.528 C 122.114 168.528, 112.566 180.488, 111.956 181 C 111.628 181.275, 109.516 184.019, 107.261 187.097 C 105.007 190.176, 102.557 193.326, 101.817 194.097 C 101.077 194.869, 98.914 197.525, 97.011 200 C 95.109 202.475, 93.297 204.725, 92.987 205 C 92.676 205.275, 86.085 213.600, 78.341 223.500 C 70.597 233.400, 62.627 243.455, 60.630 245.845 C 57.239 249.903, 55.814 253.592, 57.930 252.833 C 58.790 252.525, 70.285 238.458, 79.387 226.575 C 81.525 223.784, 85.683 218.575, 88.627 215 C 96.205 205.800, 97.952 203.628, 105.922 193.500 C 109.817 188.550, 114.466 182.764, 116.252 180.643 C 118.038 178.521, 119.888 176.108, 120.363 175.280 C 121.621 173.085, 124.857 170, 125.902 170 C 126.775 170, 128.369 171.791, 135.491 180.772 C 138.879 185.045, 138.879 185.045, 144.368 178.165 C 147.387 174.381, 150.464 170.659, 151.205 169.893 C 151.945 169.127, 156.552 163.325, 161.441 157 C 177.159 136.668, 175.423 134.678, 176 173.683 C 176.500 207.500, 176.500 207.500, 186.854 207.786 C 201.583 208.193, 200.032 216.129, 199.982 140.617 C 199.934 69.231, 200.058 70.623, 194.388 77.635" stroke="none" fill="#c647eb" fill-rule="evenodd"/></svg>